<?xml version="1.0" standalone="no"?>
<!DOCTYPE svg PUBLIC "-//W3C//DTD SVG 20010904//EN"
 "http://www.w3.org/TR/2001/REC-SVG-20010904/DTD/svg10.dtd">
<svg version="1.0" xmlns="http://www.w3.org/2000/svg"
 width="640.000000pt" height="640.000000pt" viewBox="0 0 640.000000 640.000000"
 preserveAspectRatio="xMidYMid meet">
<metadata>
Created by potrace 1.14, written by Peter Selinger 2001-2017
</metadata>
<g transform="translate(0.000000,640.000000) scale(0.100000,-0.100000)"
fill="#000000" stroke="none">
<path d="M5047 4254 c-1 -1 -59 -4 -129 -8 -70 -4 -133 -8 -140 -10 -7 -3 -38
-7 -68 -10 -99 -10 -413 -64 -710 -121 -41 -8 -91 -17 -110 -20 -19 -3 -60
-10 -90 -15 -30 -5 -73 -12 -95 -15 -22 -3 -49 -7 -60 -10 -11 -2 -47 -6 -80
-10 -33 -3 -80 -8 -105 -11 -83 -10 -374 -11 -475 -2 -118 11 -295 41 -565 97
-214 44 -372 70 -525 86 -33 4 -71 8 -84 10 -14 3 -52 7 -85 10 -34 3 -74 8
-91 11 -80 13 -497 12 -615 -2 -104 -12 -346 -51 -425 -68 -38 -9 -520 -104
-557 -110 l-36 -7 2 -147 c2 -174 7 -187 112 -300 90 -96 121 -144 140 -211
91 -331 200 -630 300 -822 78 -149 225 -255 460 -334 173 -58 316 -79 544 -79
264 -1 382 13 533 66 264 91 468 274 664 600 81 134 116 214 163 378 41 142
85 246 118 284 33 36 66 45 167 44 129 -1 160 -9 205 -53 54 -53 83 -112 144
-292 181 -531 417 -802 819 -939 521 -178 1099 -79 1421 242 143 143 204 275
311 669 99 361 127 415 261 511 l29 21 1 157 c1 192 -2 197 -117 216 -41 6
-171 36 -289 65 -192 48 -302 68 -575 105 -93 13 -361 30 -368 24z m-3227
-148 c154 -7 161 -7 330 -42 453 -94 665 -251 678 -500 8 -158 -40 -320 -184
-614 -125 -254 -282 -424 -490 -529 -198 -99 -370 -136 -624 -134 -205 2 -408
39 -537 98 -271 124 -395 329 -509 840 -20 88 -35 266 -32 365 4 103 7 122 35
180 54 116 157 191 333 244 93 28 251 55 410 71 36 4 81 9 100 11 19 2 98 7
175 10 77 4 141 8 143 9 2 2 11 1 20 -1 9 -1 78 -5 152 -8z m3135 -1 c77 -3
156 -8 175 -10 19 -3 58 -7 85 -10 395 -43 553 -94 676 -215 82 -81 101 -138
103 -305 0 -129 -7 -221 -25 -303 -5 -23 -12 -59 -15 -78 -9 -56 -80 -295
-115 -384 -89 -231 -279 -401 -514 -460 -268 -68 -537 -72 -775 -14 -210 52
-365 138 -511 283 -104 105 -167 197 -246 361 -241 502 -235 751 22 918 178
117 553 215 837 221 51 1 94 3 95 5 2 2 18 2 36 0 17 -1 95 -5 172 -9z"/>
</g>
</svg>
